<svg viewBox="64 64 896 896" focusable="false" data-icon="robot" width="1em" height="1em" fill="currentColor" aria-hidden="true" xmlns="http://www.w3.org/2000/svg"><path d="M880 112H144c-17.7 0-32 14.3-32 32v736c0 17.7 14.3 32 32 32h736c17.7 0 32-14.3 32-32V144c0-17.7-14.3-32-32-32zm-40 728H184V184h656v656zM312 440c0-22.1 17.9-40 40-40s40 17.9 40 40-17.9 40-40 40-40-17.9-40-40zm360 0c0-22.1 17.9-40 40-40s40 17.9 40 40-17.9 40-40 40-40-17.9-40-40zM352 648h320c4.4 0 8-3.6 8-8v-32c0-4.4-3.6-8-8-8H352c-4.4 0-8 3.6-8 8v32c0 4.4 3.6 8 8 8z"></path></svg>
